<?xml version="1.0" encoding="UTF-8"?>
<svg xmlns="http://www.w3.org/2000/svg" id="Layer_1" data-name="Layer 1" viewBox="0 0 646.79 127.3">
  <defs>
    <style>
      .cls-1 {
        fill: currentColor;
        fill-rule: evenodd;
        stroke-width: 0px;
      }
    </style>
  </defs>
  <g id="_3" data-name="3">
    <path id="_4" data-name="4" class="cls-1" d="M105.25,127.3h-2.89c0-42.43,0-84.86,0-127.3h2.89v127.3ZM99.45,0h-2.89c0,42.43,0,84.86,0,127.3h2.89V0ZM93.66,127.3c0-42.43,0-84.86,0-127.3h-8.67c-17.73,13.01-21.74,37.99-8.88,55.89,15.54,21.63,16.31,49.46,4.3,71.4h13.24ZM116.84,0h-2.89c0,42.43,0,84.86,0,127.3h2.89V0ZM111.05,0h-2.89c0,42.43,0,84.86,0,127.3h2.89V0ZM119.75,0c0,42.43,0,84.86,0,127.3h7.55V0h-7.55ZM54.34,71.54C38.76,49.86,38.02,21.96,50.12,0H0v127.3h45.65c17.57-13.05,21.5-37.92,8.69-55.76Z"/>
  </g>
</svg>